<svg xmlns="http://www.w3.org/2000/svg" height="24" viewBox="0 -960 960 960" width="24" fill="context-fill" fill-opacity="context-fill-opacity"><path d="M757-128 480-405l-95 96q8 15 11 31.5t3 33.5q0 63.938-45.544 109.469Q307.911-89 243.956-89 180-89 134.5-134.544 89-180.089 89-244.044 89-308 134.531-353.5T244-399q17 0 33.5 3t31.638 11L404-480l-94.862-96Q294-568 277.5-565t-33.5 3q-63.938 0-109.469-45.544Q89-653.089 89-717.044 89-781 134.544-826.5q45.545-45.5 109.5-45.5Q308-872 353.5-826.469T399-717q0 17-3 33.5t-11 31.264L871-166v38H757ZM597-521l-76-76 236-236h114v38L597-521ZM244-637q33 0 56.5-23.5T324-717q0-33-23.5-56.5T244-797q-33 0-56.5 23.5T164-717q0 33 23.5 56.5T244-637Zm237 174q7.5 0 12.75-5.25T499-481q0-7.5-5.25-12.75T481-499q-7.5 0-12.75 5.25T463-481q0 7.5 5.25 12.75T481-463ZM244-164q33 0 56.5-23.5T324-244q0-33-23.5-56.5T244-324q-33 0-56.5 23.5T164-244q0 33 23.5 56.5T244-164Z"/></svg>