<svg xmlns="http://www.w3.org/2000/svg" height="24" viewBox="0 -960 960 960" width="24" fill="context-fill" fill-opacity="context-fill-opacity"><path d="M225.5-875.5h75l133 355H361L331.268-604H194.5L165-520.5H92.5l133-355Zm3.5 402q40.5 0 69 28.5t28.5 69.015q0 19.293-7.25 37.139Q312-321 298-307l-16.5 16 31.5 32 57-56.5 53.5 53.5-56.5 56 56.5 57L370-96.5l-56-56-44 43.5q-14.5 14.5-33.017 22-18.517 7.5-38.983 7.5-40.5 0-68-29t-27.5-69.515q0-19.293 7.75-37.139Q118-233 132-247l44-44-16.5-16q-14-13.5-21.5-31.041t-7.5-37.03q0-40.929 28.77-69.679T229-473.5Zm-.5 235.5L184-194q-3.3 3.477-4.4 7.534-1.1 4.057-1.1 8.693 0 9.273 6.233 15.773 6.234 6.5 15.3 6.5 4.534 0 8.5-1.5 3.967-1.5 7.467-5l44.5-44-32-32Zm-.25-160.5q-9.25 0-15.5 6.5t-6.25 15.773q0 4.636 1.1 8.693 1.1 4.057 4.4 7.534l17 16 15.031-15.031q3.469-3.469 4.969-7.522 1.5-4.052 1.5-8.684 0-9.263-6.5-16.263-6.5-7-15.75-7ZM261-793l-46 130.5h96L265-793h-4Zm436.5-104q7 12 12.25 24.75t8.75 25.75l-39.5 12h198.5v75h-71q-10.641 33.538-27.571 63.519Q762-666 739-640.39 766.5-624 796-613t61 19l-17.5 72q-42.5-11-83-26.75T680-589.5Q644-565 603.5-549t-83 27L504-594q31-8 60.5-19t56.5-27.32q-23-25.5-39.75-55.59Q564.5-726 554.5-759.5h-72v-75h175q-2.654-11.974-7.077-23.487Q646-869.5 641-880.5l56.5-16.5ZM803-457.5l53.5 52.5L549-97.5 495.5-150 803-457.5Zm-222.971 22q23.971 0 40.721 16.779 16.75 16.78 16.75 40.75 0 23.971-16.779 40.721-16.78 16.75-40.75 16.75-23.971 0-40.721-16.779-16.75-16.78-16.75-40.75 0-23.971 16.779-40.721 16.78-16.75 40.75-16.75ZM633-759.5q8 20.118 20 38.118 12 18 27 33.882 15.156-15.882 27.281-33.882 12.125-18 21.219-38.118H633Zm147.029 524q23.971 0 40.721 16.779 16.75 16.78 16.75 40.75 0 23.971-16.779 40.721-16.78 16.75-40.75 16.75-23.971 0-40.721-16.779-16.75-16.78-16.75-40.75 0-23.971 16.779-40.721 16.78-16.75 40.75-16.75Z"/></svg>