<svg xmlns="http://www.w3.org/2000/svg" height="24" viewBox="0 -960 960 960" width="24" fill="context-fill" fill-opacity="context-fill-opacity"><path d="M282.894-404q-31.394 0-53.644-22.356T207-480.106q0-31.394 22.356-53.644t53.75-22.25q31.394 0 53.644 22.356t22.25 53.75q0 31.394-22.356 53.644T282.894-404ZM283-247q-97.083 0-165.042-67.941Q50-382.882 50-479.941T117.958-645Q185.917-713 283-713q66 0 119 32.5t84 86.5h353l114 114-173.5 173.5-79.75-60-79.75 60-84-59.5h-50q-31 54-84.261 86.5Q348.477-247 283-247Zm-.222-75Q338-322 380-355.5q42-33.5 55.5-85.5H559l59 41.5 82-61 72 54.5 74.5-74-39-39h-372q-13.5-52.5-55.75-85.75T283-638q-65.5 0-111.75 46.25T125-480q0 65.5 46.347 111.75T282.778-322Z"/></svg>