<svg xmlns="http://www.w3.org/2000/svg" height="24" viewBox="0 -960 960 960" width="24" fill="context-fill" fill-opacity="context-fill-opacity"><path d="M187.271-108.078v-507.026h118.384v-78.224q0-73.016 50.769-123.785Q407.193-867.882 480-867.882q72.807 0 123.576 50.769 50.769 50.769 50.769 123.73v78.109h118.384v507.196H187.271Zm292.697-185.961q28.14 0 47.874-19.702 19.734-19.701 19.734-47.842t-19.701-47.875q-19.702-19.734-47.843-19.734-28.14 0-47.874 19.702t-19.734 47.842q0 28.141 19.701 47.875 19.702 19.734 47.843 19.734ZM361.615-615.152h236.77v-78.509q0-49.068-34.501-83.665-34.502-34.596-83.789-34.596t-83.883 34.552q-34.597 34.551-34.597 83.91v78.308Z"/></svg>