<svg xmlns="http://www.w3.org/2000/svg" height="24" viewBox="0 -960 960 960" width="24" fill="context-fill" fill-opacity="context-fill-opacity"><path d="M772.729-263.076 420.653-615.152h177.732v-78.385q0-49.577-35.02-83.981-35.019-34.404-84.596-34.404-49.769 0-84.635 34.443-34.865 34.442-34.865 83.942v14.5l-51.383-51.191q12.038-60.269 60.537-98.962 48.5-38.692 110.346-38.692 73 0 124.288 50.769t51.288 123.576v78.385h118.384v352.076Zm43.733 230.538-75.733-75.54H187.271v-503.844h49.615L34.154-814.846l39.23-39.23L855.69-71.768l-39.229 39.23ZM433.731-413.884q-9.846 9.654-14.827 22.115-4.98 12.462-4.98 26.654 0 28.653 19.615 48.115 19.615 19.461 48.269 19.461 14.384 0 26.596-4.827 12.211-4.827 21.865-14.673l-96.538-96.845Z"/></svg>