<svg xmlns="http://www.w3.org/2000/svg" height="24" viewBox="0 -960 960 960" width="24" fill="context-fill" fill-opacity="context-fill-opacity"><path d="M479.895-286Q496-286 507-296.895q11-10.894 11-27Q518-340 507.105-351q-10.894-11-27-11Q464-362 453-351.105q-11 10.894-11 27Q442-308 452.895-297q10.894 11 27 11ZM442.5-440h75v-236h-75v236ZM334-129 129-334v-292l205-205h292l205 205v292L626-129H334Zm31.722-75H594.5L756-365.722V-594.5L594.278-756H365.5L204-594.278V-365.5L365.722-204ZM480-480Z"/></svg>