<svg xmlns="http://www.w3.org/2000/svg" height="24" viewBox="0 -960 960 960" width="24" fill="context-fill" fill-opacity="context-fill-opacity"><path d="M831-675v471q0 30.938-22.031 52.969Q786.938-129 756-129H204q-30.938 0-52.969-22.031Q129-173.062 129-204v-552q0-30.938 22.031-52.969Q173.062-831 204-831h471l156 156Zm-75 31L644-756H204v552h552v-440ZM480-247q47.5 0 80.75-33.25T594-361q0-47.5-33.25-80.75T480-475q-47.5 0-80.75 33.25T366-361q0 47.5 33.25 80.75T480-247ZM245-561h351v-154H245v154Zm-41-83v440-552 112Z"/></svg>